# xmcd
#
# Track frame offsets:
#	150
#	14942
#	33697
#	48527
#	60047
#	80767
#	89922
#	103730
#	117787
#	133287
#	148857
#	159355
#	174700
#	188497
#	205655
#	221255
#	234555
#	250927
#	264132
#
# Disc length: 3688 seconds
#
# Revision: 1
# Processed by: cddbd v1.5.2PL0 Copyright (c) Steve Scherf et al.
# Submitted via: EasyCDDAExtractor 11.0.2.1
#
DISCID=130e6613
DTITLE=Susanne Klee - Simply My Best
DYEAR=2007
DGENRE=Country
TTITLE0=Every Little Thing
TTITLE1=455 Rocket
TTITLE2=Warmed-Over Kisses
TTITLE3=Sweet Nothin's
TTITLE4=Galaxie 5000
TTITLE5=I'm Gonna Knock On Your Door
TTITLE6=I'm A Woman
TTITLE7=Drive My Car
TTITLE8=Real Men
TTITLE9=Can't Let Go
TTITLE10=Nothin' But You
TTITLE11=Brandnew Girl
TTITLE12=Banks Of The OHIO
TTITLE13=How Does It Feel
TTITLE14=Evertime Love Comes Around
TTITLE15=Mistery Train
TTITLE16=Speed Of The sound Of Loneliness
TTITLE17=Can't Get enough
TTITLE18=I Hear You  Knockin'
EXTD=
EXTT0=
EXTT1=
EXTT2=
EXTT3=
EXTT4=
EXTT5=
EXTT6=
EXTT7=
EXTT8=
EXTT9=
EXTT10=
EXTT11=
EXTT12=
EXTT13=
EXTT14=
EXTT15=
EXTT16=
EXTT17=
EXTT18=
PLAYORDER=
